<svg width="25" height="25" viewBox="0 0 25 25" fill="none" xmlns="http://www.w3.org/2000/svg">
<g clip-path="url(#clip0_44_15)">
<path d="M16.8003 11.207C18.4603 11.207 19.7903 9.86697 19.7903 8.20697C19.7903 6.54697 18.4603 5.20697 16.8003 5.20697C15.1403 5.20697 13.8003 6.54697 13.8003 8.20697C13.8003 9.86697 15.1403 11.207 16.8003 11.207ZM8.80029 11.207C10.4603 11.207 11.7903 9.86697 11.7903 8.20697C11.7903 6.54697 10.4603 5.20697 8.80029 5.20697C7.14029 5.20697 5.80029 6.54697 5.80029 8.20697C5.80029 9.86697 7.14029 11.207 8.80029 11.207ZM8.80029 13.207C6.47029 13.207 1.80029 14.377 1.80029 16.707V19.207H15.8003V16.707C15.8003 14.377 11.1303 13.207 8.80029 13.207ZM16.8003 13.207C16.5103 13.207 16.1803 13.227 15.8303 13.257C16.9903 14.097 17.8003 15.227 17.8003 16.707V19.207H23.8003V16.707C23.8003 14.377 19.1303 13.207 16.8003 13.207Z" fill="white"/>
</g>
<defs>
<clipPath id="clip0_44_15">
<rect width="24" height="24" fill="white" transform="translate(0.800293 0.20697)"/>
</clipPath>
</defs>
</svg>
